<svg xmlns="http://www.w3.org/2000/svg" width="50" height="57" fill="none" viewBox="0 0 50 57"><path fill="#264de4" d="m50 0-4.555 51.294L24.969 57 4.55 51.302 0 0z"/><path fill="#2965f1" d="m41.545 48.027 3.893-43.833H25v48.444z"/><path fill="#ebebeb" d="m10.432 23.223.56 6.292H25v-6.292zM25 10.487H9.305l.569 6.292H25zM25 46.11v-6.547l-.027.007-6.971-1.892-.446-5.018h-6.283l.876 9.88 12.823 3.577z"/><path fill="#fff" d="m32.686 29.514-.726 8.16-6.982 1.894v6.546l12.833-3.575.094-1.063 1.47-16.565.153-1.69 1.13-12.734h-15.68v6.292h8.82l-.569 6.443h-8.25v6.292z"/></svg>