<svg xmlns="http://www.w3.org/2000/svg" width="50" height="50" fill="none" viewBox="0 0 50 50"><path fill="#f05133" d="M49.057 22.773 27.225.943a3.22 3.22 0 0 0-4.552 0L18.14 5.477l5.75 5.75a3.823 3.823 0 0 1 4.842 4.875l5.542 5.543a3.83 3.83 0 0 1 3.958 6.327 3.83 3.83 0 0 1-6.253-4.167l-5.168-5.169-.001 13.602a3.832 3.832 0 1 1-3.15-.111V18.397a3.83 3.83 0 0 1-2.08-5.025l-5.669-5.67L.944 22.674a3.22 3.22 0 0 0 0 4.554l21.83 21.83a3.22 3.22 0 0 0 4.555 0L49.057 27.33a3.22 3.22 0 0 0 0-4.555"/></svg>