<svg xmlns="http://www.w3.org/2000/svg" width="50" height="50" fill="none" viewBox="0 0 50 50"><path fill="#fff" fill-rule="evenodd" d="M25 0C11.188 0 0 11.47 0 25.629c0 11.328 7.167 20.925 17.096 24.323 1.244.236 1.704-.55 1.704-1.243 0-.614-.015-2.218-.03-4.358-6.953 1.542-8.426-3.43-8.426-3.43-1.136-2.957-2.778-3.744-2.778-3.744-2.271-1.59.169-1.558.169-1.558 2.501.19 3.837 2.643 3.837 2.643 2.225 3.918 5.847 2.785 7.274 2.124.23-1.652.875-2.784 1.58-3.43C14.872 36.313 9.04 34.11 9.04 24.293c0-2.8.967-5.082 2.579-6.876-.261-.645-1.12-3.256.245-6.78 0 0 2.103-.693 6.875 2.627 1.996-.566 4.129-.85 6.262-.865 2.118 0 4.266.299 6.262.865 4.772-3.32 6.875-2.628 6.875-2.628 1.366 3.525.506 6.136.245 6.781 1.596 1.794 2.563 4.075 2.563 6.876 0 9.848-5.847 12.004-11.418 12.649.89.786 1.704 2.36 1.704 4.751 0 3.43-.03 6.183-.03 7.033 0 .692.444 1.479 1.718 1.227C42.849 46.554 50 36.957 50 25.645 50 11.469 38.812 0 25 0" clip-rule="evenodd"/></svg>