<svg xmlns="http://www.w3.org/2000/svg" width="20" height="20" fill="none" viewBox="0 0 20 20"><path fill="#fff" fill-opacity=".6" fill-rule="evenodd" d="M10 0C4.475 0 0 4.588 0 10.252c0 4.53 2.867 8.37 6.839 9.729.497.094.68-.22.68-.497 0-.246-.005-.888-.011-1.744-2.781.617-3.37-1.371-3.37-1.371-.455-1.184-1.112-1.498-1.112-1.498-.908-.636.068-.623.068-.623 1 .075 1.535 1.057 1.535 1.057.89 1.567 2.338 1.114 2.91.85.091-.661.35-1.114.632-1.372-2.223-.258-4.555-1.14-4.555-5.066 0-1.12.386-2.033 1.031-2.75-.104-.258-.448-1.303.098-2.713 0 0 .841-.277 2.75 1.051A9.5 9.5 0 0 1 10 4.96c.847 0 1.707.12 2.505.346 1.909-1.328 2.75-1.05 2.75-1.05.546 1.409.202 2.454.098 2.712.638.717 1.025 1.63 1.025 2.75 0 3.94-2.339 4.801-4.567 5.06.356.314.681.943.681 1.9 0 1.372-.012 2.473-.012 2.813 0 .277.178.591.688.49C17.139 18.623 20 14.784 20 10.259 20 4.588 15.525 0 10 0" clip-rule="evenodd"/></svg>