<svg xmlns="http://www.w3.org/2000/svg" width="40" height="40" fill="none" viewBox="0 0 40 40"><path fill="#58c4dc" d="M20.173 24a4 4 0 1 0 0-8 4 4 0 0 0 0 8"/><path stroke="#58c4dc" d="M20.173 27.225c10.45 0 18.922-3.235 18.922-7.225s-8.472-7.225-18.922-7.225S1.25 16.01 1.25 20s8.472 7.225 18.923 7.225Z"/><path stroke="#58c4dc" d="M13.916 23.613c5.225 9.05 12.262 14.77 15.718 12.775 3.456-1.996 2.021-10.95-3.204-20C21.204 7.336 14.167 1.617 10.71 3.611c-3.455 1.996-2.02 10.95 3.205 20Z"/><path stroke="#58c4dc" d="M13.916 16.388c-5.226 9.05-6.66 18.004-3.205 20s10.493-3.725 15.719-12.775 6.66-18.005 3.204-20-10.493 3.724-15.718 12.775Z"/></svg>