<svg xmlns="http://www.w3.org/2000/svg" width="20" height="20" fill="none" viewBox="0 0 20 20"><path fill="#6d6dff" d="M8.846 2.308a.77.77 0 0 1 0 1.538H2.308a.77.77 0 0 0-.77.77v13.076c0 .425.345.77.77.77h13.077a.77.77 0 0 0 .77-.77v-6.538a.769.769 0 1 1 1.537 0v6.538A2.31 2.31 0 0 1 15.385 20H2.308A2.31 2.31 0 0 1 0 17.692V4.615a2.31 2.31 0 0 1 2.308-2.307zM19.23 0A.77.77 0 0 1 20 .77v6.922a.77.77 0 0 1-1.538 0V2.626l-8.797 8.797a.77.77 0 0 1-1.088-1.088l8.797-8.797h-5.066a.77.77 0 1 1 0-1.538z"/></svg>